<svg width="1328" height="216" fill="none" xmlns="http://www.w3.org/2000/svg">
<path d="M0 212.629V3.3706H78.0664C92.2944 3.3706 104.837 5.99219 115.696 11.2354C126.741 16.2913 135.353 23.7815 141.531 33.7061C147.708 43.4434 150.797 55.3342 150.797 69.3784C150.797 83.2354 147.615 95.1261 141.25 105.051C135.072 114.788 126.554 122.278 115.696 127.521C104.837 132.765 92.2944 135.386 78.0664 135.386H38.1908V212.629H0ZM38.1908 101.68H78.6281C85.5548 101.68 91.5455 100.369 96.6002 97.7477C101.655 94.9389 105.586 91.1001 108.394 86.2315C111.203 81.3628 112.607 75.7451 112.607 69.3784C112.607 62.8244 111.203 57.2068 108.394 52.5253C105.586 47.6567 101.655 43.9116 96.6002 41.29C91.5455 38.4811 85.5548 37.0767 78.6281 37.0767H38.1908V101.68Z" fill="white"/>
<path d="M182.091 212.629V3.3706H259.876C274.104 3.3706 286.647 5.99219 297.505 11.2354C308.551 16.2913 317.162 23.7815 323.34 33.7061C329.518 43.4434 332.607 55.3342 332.607 69.3784C332.607 83.7971 329.144 96.0624 322.217 106.174C315.478 116.286 306.304 123.776 294.697 128.645L342.717 212.629H299.471L248.082 120.78L272.794 135.386H220.281V212.629H182.091ZM220.281 101.68H260.438C267.365 101.68 273.355 100.369 278.41 97.7477C283.465 94.9389 287.396 91.1001 290.204 86.2315C293.012 81.3628 294.416 75.7451 294.416 69.3784C294.416 62.8244 293.012 57.2068 290.204 52.5253C287.396 47.6567 283.465 43.9116 278.41 41.29C273.355 38.4811 267.365 37.0767 260.438 37.0767H220.281V101.68Z" fill="white"/>
<path d="M470.805 216C455.454 216 441.132 213.285 427.841 207.854C414.549 202.424 402.942 194.84 393.02 185.103C383.097 175.365 375.328 163.943 369.712 150.835C364.283 137.54 361.568 123.215 361.568 107.86C361.568 92.3173 364.283 77.9922 369.712 64.8843C375.141 51.7763 382.817 40.3537 392.739 30.6164C402.661 20.8791 414.268 13.3888 427.56 8.14564C440.852 2.71521 455.267 0 470.805 0C486.344 0 500.759 2.71521 514.051 8.14564C527.343 13.5761 538.95 21.1599 548.872 30.8973C558.794 40.4473 566.469 51.7763 571.898 64.8843C577.515 77.9922 580.323 92.3173 580.323 107.86C580.323 123.215 577.515 137.54 571.898 150.835C566.282 163.943 558.513 175.365 548.591 185.103C538.669 194.84 527.062 202.424 513.77 207.854C500.665 213.285 486.344 216 470.805 216ZM470.805 181.17C481.102 181.17 490.556 179.391 499.167 175.834C507.779 172.088 515.268 166.939 521.633 160.385C528.185 153.831 533.146 146.06 536.516 137.072C540.073 128.083 541.851 118.346 541.851 107.86C541.851 97.3732 540.073 87.7295 536.516 78.9285C533.146 69.9402 528.185 62.169 521.633 55.6151C515.268 48.8739 507.779 43.7243 499.167 40.1664C490.556 36.6086 481.102 34.8297 470.805 34.8297C460.696 34.8297 451.335 36.6086 442.724 40.1664C434.112 43.7243 426.53 48.8739 419.978 55.6151C413.613 62.169 408.652 69.9402 405.095 78.9285C401.538 87.7295 399.759 97.3732 399.759 107.86C399.759 118.346 401.538 128.083 405.095 137.072C408.652 146.06 413.613 153.831 419.978 160.385C426.53 166.939 434.112 172.088 442.724 175.834C451.335 179.391 460.696 181.17 470.805 181.17Z" fill="white"/>
<path d="M712.567 216C697.59 216 683.736 213.285 671.006 207.854C658.463 202.424 647.418 194.84 637.87 185.103C628.51 175.365 621.208 163.943 615.967 150.835C610.725 137.727 608.104 123.402 608.104 107.86C608.104 92.3173 610.631 77.9922 615.686 64.8843C620.928 51.5891 628.229 40.1665 637.589 30.6164C647.137 20.8791 658.276 13.3888 671.006 8.14564C683.736 2.71521 697.59 0 712.567 0C727.543 0 740.929 2.52796 752.723 7.58388C764.705 12.6398 774.814 19.381 783.051 27.8075C791.288 36.0468 797.185 45.1287 800.742 55.0533L766.483 71.0637C762.552 60.5774 755.906 51.9636 746.545 45.2224C737.185 38.2939 725.859 34.8297 712.567 34.8297C699.462 34.8297 687.855 37.9194 677.746 44.0988C667.824 50.2783 660.054 58.7984 654.438 69.6593C649.009 80.5201 646.294 93.2536 646.294 107.86C646.294 122.466 649.009 135.293 654.438 146.341C660.054 157.202 667.824 165.722 677.746 171.901C687.855 178.081 699.462 181.17 712.567 181.17C725.859 181.17 737.185 177.8 746.545 171.059C755.906 164.13 762.552 155.423 766.483 144.936L800.742 160.947C797.185 170.871 791.288 180.047 783.051 188.473C774.814 196.713 764.705 203.36 752.723 208.416C740.929 213.472 727.543 216 712.567 216Z" fill="white"/>
<path d="M831.748 212.629V3.3706H970.751V37.0767H869.939V90.7256H965.135V124.432H869.939V178.923H970.751V212.629H831.748Z" fill="white"/>
<path d="M1073.45 216C1060.16 216 1047.81 213.566 1036.39 208.697C1025.15 203.828 1015.42 197.087 1007.18 188.473C999.131 179.672 993.233 169.467 989.489 157.857L1021.22 144.094C1026.28 156.078 1033.58 165.534 1043.12 172.463C1052.67 179.204 1063.44 182.575 1075.42 182.575C1082.16 182.575 1087.96 181.545 1092.83 179.485C1097.88 177.238 1101.72 174.242 1104.34 170.497C1107.15 166.752 1108.55 162.257 1108.55 157.014C1108.55 150.835 1106.68 145.779 1102.94 141.847C1099.38 137.727 1093.95 134.544 1086.65 132.296L1046.49 119.376C1030.21 114.32 1017.95 106.736 1009.71 96.6242C1001.47 86.5124 997.352 74.6216 997.352 60.9519C997.352 48.9675 1000.25 38.3875 1006.06 29.212C1012.05 20.0364 1020.29 12.9207 1030.77 7.86476C1041.44 2.62159 1053.61 0 1067.27 0C1079.82 0 1091.33 2.24707 1101.82 6.74122C1112.3 11.0481 1121.28 17.1339 1128.77 24.9987C1136.45 32.6762 1142.16 41.7581 1145.9 52.2445L1114.45 66.2887C1110.33 55.8023 1104.16 47.7503 1095.92 42.1326C1087.68 36.3277 1078.13 33.4252 1067.27 33.4252C1060.91 33.4252 1055.29 34.5488 1050.43 36.7958C1045.56 38.8557 1041.72 41.8518 1038.91 45.7841C1036.29 49.5293 1034.98 54.0234 1034.98 59.2666C1034.98 65.0715 1036.85 70.2211 1040.6 74.7152C1044.34 79.0221 1050.05 82.3927 1057.73 84.827L1096.2 96.9051C1112.86 102.335 1125.31 109.826 1133.55 119.376C1141.97 128.926 1146.18 140.723 1146.18 154.767C1146.18 166.752 1143.09 177.332 1136.92 186.507C1130.74 195.683 1122.22 202.892 1111.36 208.135C1100.5 213.378 1087.87 216 1073.45 216Z" fill="white"/>
<path d="M1255.27 216C1241.98 216 1229.62 213.566 1218.2 208.697C1206.97 203.828 1197.23 197.087 1189 188.473C1180.95 179.672 1175.05 169.467 1171.31 157.857L1203.04 144.094C1208.09 156.078 1215.39 165.534 1224.94 172.463C1234.49 179.204 1245.25 182.575 1257.23 182.575C1263.97 182.575 1269.78 181.545 1274.65 179.485C1279.7 177.238 1283.54 174.242 1286.16 170.497C1288.97 166.752 1290.37 162.257 1290.37 157.014C1290.37 150.835 1288.5 145.779 1284.75 141.847C1281.2 137.727 1275.77 134.544 1268.47 132.296L1228.31 119.376C1212.02 114.32 1199.76 106.736 1191.52 96.6242C1183.29 86.5124 1179.17 74.6216 1179.17 60.9519C1179.17 48.9675 1182.07 38.3875 1187.87 29.212C1193.86 20.0364 1202.1 12.9207 1212.59 7.86476C1223.26 2.62159 1235.43 0 1249.09 0C1261.63 0 1273.15 2.24707 1283.63 6.74122C1294.12 11.0481 1303.1 17.1339 1310.59 24.9987C1318.27 32.6762 1323.98 41.7581 1327.72 52.2445L1296.27 66.2887C1292.15 55.8023 1285.97 47.7503 1277.73 42.1326C1269.5 36.3277 1259.95 33.4252 1249.09 33.4252C1242.73 33.4252 1237.11 34.5488 1232.24 36.7958C1227.38 38.8557 1223.54 41.8518 1220.73 45.7841C1218.11 49.5293 1216.8 54.0234 1216.8 59.2666C1216.8 65.0715 1218.67 70.2211 1222.41 74.7152C1226.16 79.0221 1231.87 82.3927 1239.54 84.827L1278.02 96.9051C1294.68 102.335 1307.13 109.826 1315.36 119.376C1323.79 128.926 1328 140.723 1328 154.767C1328 166.752 1324.91 177.332 1318.73 186.507C1312.56 195.683 1304.04 202.892 1293.18 208.135C1282.32 213.378 1269.68 216 1255.27 216Z" fill="white"/>
</svg>
